<svg xmlns="http://www.w3.org/2000/svg" width="1200" height="630" viewBox="0 0 1200 630" fill="none">
  <rect width="1200" height="630" fill="#F8FAFC" />
  <circle cx="1020" cy="110" r="180" fill="#CCFBEF" />
  <circle cx="180" cy="560" r="220" fill="#EEF2FF" />
  <rect x="88" y="88" width="1024" height="454" rx="36" fill="white" stroke="#E2E8F0" stroke-width="2" />
  <rect x="128" y="128" width="92" height="92" rx="28" fill="#00A878" />
  <path
    d="M174 195c-10.8-6.8-27-17.1-27-33.6 0-8.7 6.7-15.6 15.3-15.6 5.4 0 10.1 2.6 13.2 6.9 3.1-4.3 7.8-6.9 13.2-6.9 8.6 0 15.3 6.9 15.3 15.6 0 16.5-16.2 26.8-27 33.6Z"
    fill="white"
  />
  <text x="256" y="185" fill="#0F172A" font-family="Verdana, Arial, sans-serif" font-size="58" font-weight="700">
    VivaBem Saude
  </text>
  <text x="128" y="292" fill="#0F172A" font-family="Verdana, Arial, sans-serif" font-size="64" font-weight="700">
    Compare planos de saude
  </text>
  <text x="128" y="364" fill="#0F172A" font-family="Verdana, Arial, sans-serif" font-size="64" font-weight="700">
    com apoio humano de verdade.
  </text>
  <text x="128" y="438" fill="#475569" font-family="Verdana, Arial, sans-serif" font-size="30">
    Simulacao digital, resposta rapida e foco no melhor custo-beneficio.
  </text>
  <rect x="128" y="472" width="300" height="56" rx="28" fill="#00A878" />
  <text x="178" y="508" fill="white" font-family="Verdana, Arial, sans-serif" font-size="26" font-weight="700">
    vivabemsaude.com.br
  </text>
</svg>
